<?xml version="1.0" standalone="no"?>
<!DOCTYPE svg PUBLIC "-//W3C//DTD SVG 20010904//EN"
 "http://www.w3.org/TR/2001/REC-SVG-20010904/DTD/svg10.dtd">
<svg version="1.0" xmlns="http://www.w3.org/2000/svg"
 width="150.000000pt" height="150.000000pt" viewBox="0 0 150.000000 150.000000"
 preserveAspectRatio="xMidYMid meet">
<metadata>
Created by potrace 1.14, written by Peter Selinger 2001-2017
</metadata>
<g transform="translate(0.000000,150.000000) scale(0.100000,-0.100000)"
fill="#000000" stroke="none">
<path d="M0 750 l0 -750 750 0 750 0 0 750 0 750 -750 0 -750 0 0 -750z m562
658 c79 -24 141 -73 158 -123 18 -54 -16 -117 -84 -155 -28 -16 -63 -32 -78
-35 -16 -4 -30 -15 -34 -28 -8 -29 -42 -65 -76 -83 l-27 -14 15 35 c24 59 22
61 -68 68 -143 10 -247 60 -280 133 -25 57 -13 100 42 147 95 81 273 104 432
55z m708 2 c42 -12 81 -32 108 -55 87 -75 76 -159 -29 -223 -68 -41 -103 -51
-206 -59 -91 -7 -93 -9 -69 -68 l15 -35 -29 15 c-30 15 -66 55 -75 83 -2 10
-29 26 -57 36 -32 11 -70 35 -95 61 -37 37 -43 48 -43 85 0 59 34 101 113 140
104 51 234 58 367 20z m-955 -469 c46 -21 79 -54 94 -94 31 -81 -2 -123 -89
-115 -28 3 -50 2 -50 -3 0 -15 53 -49 79 -49 l26 -1 -23 -19 c-53 -44 -139
-45 -200 -1 -82 58 -82 204 0 262 57 41 105 47 163 20z m1016 -7 c63 -32 98
-114 78 -186 -30 -112 -173 -161 -261 -88 l-23 19 23 1 c31 0 78 25 86 45 5
13 0 15 -29 9 -19 -3 -51 -3 -70 0 -47 9 -61 38 -45 95 28 106 143 156 241
105z m-1007 -360 c3 -9 6 -126 6 -260 l0 -244 -70 0 -70 0 0 65 0 65 45 0 c25
0 45 3 45 8 0 4 -20 6 -45 4 l-45 -4 0 184 c0 102 3 188 7 191 3 4 32 7 64 7
43 0 58 -4 63 -16z m984 -176 l2 -188 -40 0 -39 0 -4 143 -3 142 1 -145 0
-145 43 -3 42 -3 0 -65 0 -64 -65 0 -65 0 0 253 c0 140 3 257 7 261 4 4 32 6
63 4 l55 -3 3 -187z"/>
<path d="M271 1253 l-1 -83 133 2 c73 1 102 3 64 5 -64 4 -68 5 -65 26 3 20 9
22 70 22 65 0 66 1 63 25 -2 24 -6 25 -69 28 -57 3 -66 6 -66 22 0 10 6 21 13
23 6 3 -5 6 -25 6 -34 1 -38 -2 -38 -24 0 -22 -4 -25 -34 -25 -30 0 -35 4 -39
28 -2 15 -5 -10 -6 -55z m79 -48 c0 -22 -4 -25 -35 -25 -31 0 -35 3 -35 25 0
22 4 25 35 25 31 0 35 -3 35 -25z"/>
<path d="M980 1250 l0 -80 135 0 135 0 -1 83 c-1 45 -4 70 -6 55 -4 -27 -7
-28 -64 -28 -56 0 -59 1 -59 25 0 21 -5 25 -29 25 -25 0 -28 -3 -23 -25 4 -23
2 -25 -37 -25 -34 0 -41 3 -41 19 0 11 6 22 13 24 7 3 5 6 -5 6 -16 1 -18 -9
-18 -79z m88 -47 c3 -21 -1 -23 -37 -23 -37 0 -41 2 -41 26 0 23 3 25 38 22
30 -2 38 -7 40 -25z m172 2 c0 -24 -3 -25 -60 -25 -57 0 -60 1 -60 25 0 24 3
25 60 25 57 0 60 -1 60 -25z"/>
<path d="M310 825 c0 -8 7 -15 15 -15 8 0 15 7 15 15 0 8 -7 15 -15 15 -8 0
-15 -7 -15 -15z"/>
<path d="M1167 834 c-8 -8 1 -24 14 -24 5 0 9 7 9 15 0 15 -12 20 -23 9z"/>
</g>
</svg>
